<svg xmlns="http://www.w3.org/2000/svg" xmlns:xlink="http://www.w3.org/1999/xlink" width="1080" zoomAndPan="magnify" viewBox="0 0 810 809.999993" height="1080" preserveAspectRatio="xMidYMid meet" version="1.0"><defs><clipPath id="f1c3f80cf9"><path d="M 197 9 L 671 9 L 671 742 L 197 742 Z M 197 9 " clip-rule="nonzero"/></clipPath><clipPath id="9a3e1964db"><path d="M -8.585938 171.160156 L 312.515625 -35.300781 L 757.890625 657.367188 L 436.789062 863.832031 Z M -8.585938 171.160156 " clip-rule="nonzero"/></clipPath><clipPath id="09d8cd95a3"><path d="M -8.585938 171.160156 L 312.515625 -35.300781 L 757.890625 657.367188 L 436.789062 863.832031 Z M -8.585938 171.160156 " clip-rule="nonzero"/></clipPath></defs><g clip-path="url(#f1c3f80cf9)"><g clip-path="url(#9a3e1964db)"><g clip-path="url(#09d8cd95a3)"><path fill="#ffbd59" d="M 332.371094 698.640625 C 329.878906 697.558594 328.996094 695.546875 328.921875 692.972656 C 328.804688 689.019531 329.53125 685.257812 331.449219 681.773438 C 333.296875 678.417969 335.480469 675.34375 338.386719 672.785156 C 339.613281 671.695312 340.832031 670.628906 342.097656 669.597656 C 344.230469 667.859375 346.671875 666.632812 349.214844 665.605469 C 349.984375 665.285156 350.359375 664.890625 350.386719 664.027344 C 350.648438 658.636719 353.304688 654.613281 357.453125 651.296875 C 361.207031 648.273438 365.472656 646.921875 370.160156 646.527344 C 370.628906 646.484375 371.144531 646.609375 371.601562 646.3125 C 371.476562 644.703125 371.316406 643.074219 371.207031 641.453125 C 371.160156 640.835938 370.808594 640.5 370.339844 640.171875 C 367.980469 638.589844 365.601562 637.046875 363.3125 635.375 C 359.601562 632.667969 355.839844 630.019531 352.222656 627.191406 C 349.472656 625.035156 346.648438 622.933594 343.9375 620.707031 C 340.761719 618.09375 337.761719 615.277344 334.605469 612.628906 C 331.082031 609.671875 327.792969 606.480469 324.445312 603.324219 C 320.496094 599.582031 316.613281 595.730469 312.902344 591.746094 C 309.609375 588.210938 306.347656 584.652344 303.078125 581.082031 C 299.820312 577.5 296.6875 573.835938 293.722656 570.003906 C 290.644531 566.023438 287.71875 561.945312 284.96875 557.734375 C 282.371094 553.730469 279.683594 549.785156 277.253906 545.667969 C 273.949219 540.058594 270.40625 534.582031 267.34375 528.839844 C 265.347656 525.097656 263.4375 521.320312 261.578125 517.511719 C 258.878906 511.96875 256.515625 506.273438 253.949219 500.667969 C 252.203125 496.871094 250.878906 492.890625 249.4375 488.964844 C 248.230469 485.671875 247.019531 482.375 245.96875 479.019531 C 244.929688 475.683594 243.890625 472.320312 242.960938 468.953125 C 242.238281 466.34375 241.304688 463.78125 240.679688 461.125 C 239.203125 454.820312 237.558594 448.554688 236.6875 442.117188 C 236.378906 439.847656 236.015625 437.566406 235.730469 435.300781 C 235.234375 431.460938 234.949219 427.617188 234.507812 423.761719 C 233.675781 416.367188 233.035156 408.9375 232.617188 401.515625 C 231.960938 389.847656 231.648438 378.175781 232.34375 366.488281 C 232.433594 365.042969 232.460938 363.574219 232.640625 362.136719 C 232.808594 360.878906 232.503906 359.730469 232.078125 358.597656 C 231.117188 356.054688 230.136719 353.519531 229.316406 350.929688 C 228.53125 348.464844 227.464844 346.097656 226.65625 343.628906 C 226.3125 342.589844 225.996094 341.558594 225.753906 340.503906 C 225.371094 338.863281 224.53125 337.390625 224.082031 335.75 C 222.695312 330.726562 220.929688 325.796875 220.03125 320.65625 C 219.140625 315.464844 218.1875 310.273438 217.707031 305.011719 C 217.34375 301.042969 216.875 297.078125 216.550781 293.105469 C 216.109375 287.800781 215.714844 282.507812 215.296875 277.207031 C 214.960938 272.875 214.9375 268.492188 214.230469 264.226562 C 213.203125 258.082031 212.839844 251.859375 211.964844 245.707031 C 211.15625 240.140625 210.207031 234.621094 208.941406 229.148438 C 208.4375 226.984375 207.617188 224.867188 206.875 222.765625 C 205.324219 218.433594 203.4375 214.253906 201.582031 210.050781 C 200.484375 207.574219 199.097656 205.214844 197.890625 202.761719 C 197.542969 202.054688 196.71875 201.175781 197.679688 200.515625 C 198.503906 199.941406 199.117188 200.933594 199.609375 201.460938 C 203.246094 205.429688 206.78125 209.480469 209.972656 213.839844 C 211.265625 215.613281 212.542969 217.367188 213.695312 219.226562 C 217.050781 224.609375 219.441406 230.414062 221.1875 236.503906 C 223.816406 245.710938 225.152344 255.101562 225.269531 264.6875 C 225.28125 265.785156 225.351562 266.867188 225.3125 267.953125 C 225.265625 269.023438 225.671875 269.757812 226.535156 270.394531 C 228.707031 271.988281 230.503906 273.972656 231.765625 276.367188 C 234.507812 281.644531 236.296875 287.191406 236.179688 293.242188 C 236.152344 294.582031 236.207031 295.914062 236.203125 297.257812 C 236.210938 297.773438 236.285156 298.160156 236.867188 298.390625 C 239.566406 299.453125 241.027344 301.589844 241.941406 304.226562 C 242 304.382812 242.140625 304.535156 242.238281 304.6875 C 242.808594 304.429688 242.765625 303.890625 242.898438 303.460938 C 244.15625 298.839844 245.324219 294.1875 246.765625 289.625 C 248.277344 284.835938 249.648438 279.992188 251.164062 275.203125 C 252.640625 270.59375 254.152344 266.003906 255.796875 261.457031 C 258.097656 255.0625 260.664062 248.773438 263.386719 242.5625 C 267.851562 232.390625 273.085938 222.609375 277.371094 212.359375 C 278.554688 209.519531 280.054688 206.800781 281.246094 203.933594 C 283.511719 198.492188 285.195312 192.859375 286.671875 187.164062 C 287.640625 183.421875 288.796875 179.691406 289.589844 175.90625 C 290.398438 172.007812 291.109375 168.0625 291.691406 164.113281 C 293.117188 154.640625 293.089844 145.125 291.917969 135.65625 C 290.5 124.085938 287.816406 112.769531 283.421875 101.925781 C 281.804688 97.960938 279.871094 94.113281 277.816406 90.34375 C 275.421875 85.949219 273.234375 81.398438 270.351562 77.316406 C 268.132812 74.171875 265.808594 71.027344 263.003906 68.347656 C 262.480469 67.839844 262.023438 67.265625 261.535156 66.738281 C 259.734375 64.816406 257.648438 63.320312 255.296875 62.125 C 250.660156 59.734375 245.988281 57.386719 241.550781 54.695312 C 236.574219 51.675781 232.34375 47.789062 229.703125 42.46875 C 227.90625 38.835938 227.625 34.921875 228.058594 30.917969 C 228.84375 23.78125 232.164062 18.03125 237.738281 13.625 C 240.652344 11.316406 243.929688 9.578125 247.761719 9.234375 C 248.3125 9.183594 248.855469 9.117188 249.402344 9.15625 C 251.347656 9.25 252.140625 10.6875 251.03125 12.265625 C 249.761719 14.058594 248.667969 15.933594 248.070312 18.070312 C 246.1875 24.847656 246.316406 31.613281 248.160156 38.355469 C 248.527344 39.703125 249.175781 40.953125 249.195312 42.390625 C 249.195312 42.5625 249.257812 42.761719 249.355469 42.914062 C 251.351562 45.878906 252.695312 49.21875 254.566406 52.261719 C 257.03125 56.265625 260.210938 59.660156 263.664062 62.808594 C 266.789062 65.675781 269.789062 68.664062 272.773438 71.683594 C 273.824219 72.742188 275.152344 73.535156 276.367188 74.445312 C 281.246094 78.089844 285.511719 82.363281 289.46875 86.96875 C 293.433594 91.589844 296.871094 96.59375 299.742188 101.9375 C 305.519531 112.675781 310.613281 123.699219 313.265625 135.707031 C 314.773438 142.601562 314.753906 149.542969 314.125 156.515625 C 313.96875 158.261719 313.777344 159.988281 313.605469 161.703125 C 313.914062 161.785156 314.058594 161.734375 314.1875 161.566406 C 317.023438 157.621094 321.125 155.476562 325.464844 153.597656 C 330.210938 151.546875 335.25 150.925781 340.289062 150.242188 C 344.796875 149.636719 349.316406 149.117188 353.75 148.0625 C 359.230469 146.75 364.300781 144.421875 369.054688 141.472656 C 375.484375 137.492188 381.320312 132.785156 385.6875 126.507812 C 388.636719 122.296875 390.628906 117.613281 392.003906 112.679688 C 392.578125 110.640625 393.089844 108.601562 393.441406 106.488281 C 394.074219 102.789062 393.46875 99.257812 392.554688 95.710938 C 391.960938 93.40625 390.988281 91.253906 390.191406 89.039062 C 389.679688 87.632812 389.695312 87.625 391.136719 86.871094 C 391.796875 87.898438 392.449219 88.910156 393.109375 89.9375 C 393.191406 90.707031 393.628906 91.3125 394.078125 91.914062 C 397.113281 97.304688 398.992188 103.09375 399.796875 109.230469 C 400.433594 114.128906 400.207031 119.035156 399.621094 123.917969 C 398.125 136.515625 393.914062 148.195312 387.414062 159.042969 C 381.804688 168.414062 375.0625 176.863281 366.921875 184.179688 C 361.722656 188.863281 356.191406 193.136719 349.976562 196.375 C 342.125 200.46875 334.464844 204.894531 326.4375 208.648438 C 321.359375 211.027344 316.832031 214.261719 312.230469 217.417969 C 309.148438 219.527344 306.125 221.734375 303.757812 224.726562 C 300.171875 229.222656 297.816406 234.289062 296.527344 239.863281 C 292.214844 258.558594 290.472656 277.550781 290.449219 296.714844 C 290.433594 303.703125 291.128906 310.644531 292.144531 317.550781 C 292.222656 318.105469 292.089844 318.777344 292.683594 319.195312 C 292.539062 319.136719 292.472656 319.203125 292.511719 319.328125 C 292.515625 319.371094 292.574219 319.394531 292.621094 319.433594 C 292.625 319.339844 292.644531 319.265625 292.648438 319.175781 C 293.363281 318.738281 293.640625 317.953125 294.019531 317.296875 C 296.296875 313.492188 299.4375 310.457031 302.761719 307.644531 C 306.757812 304.253906 311.25 301.605469 316.039062 299.457031 C 318.207031 298.476562 320.511719 298.355469 322.808594 298.460938 C 323.816406 298.507812 324.421875 298.140625 324.875 297.394531 C 326.964844 293.96875 329.417969 290.8125 331.789062 287.597656 C 334.640625 283.769531 338.015625 280.496094 342.265625 278.214844 C 343.65625 277.476562 345.066406 277.042969 346.613281 277.089844 C 347.460938 277.128906 347.90625 276.84375 348.289062 276.054688 C 349.691406 273.183594 351.003906 270.238281 352.609375 267.449219 C 354.988281 263.363281 357.191406 259.175781 359.9375 255.328125 C 363.050781 250.96875 367.34375 248.078125 372.085938 245.785156 C 374.382812 244.675781 376.695312 243.621094 379.148438 242.890625 C 379.5 242.792969 379.847656 242.660156 380.1875 242.546875 C 380.78125 242.359375 381.269531 242.480469 381.542969 243.105469 C 381.796875 243.703125 381.390625 244.046875 380.992188 244.304688 C 379.863281 245.007812 378.71875 245.722656 377.546875 246.324219 C 373.859375 248.242188 371.042969 251.136719 368.523438 254.359375 C 364.273438 259.777344 360.917969 265.746094 357.632812 271.757812 C 351.351562 283.25 345.472656 294.960938 338.886719 306.277344 C 335.164062 312.65625 331.378906 319.035156 327.160156 325.105469 C 324.058594 329.546875 320.414062 333.515625 316 336.722656 C 313.695312 338.398438 311.398438 340.046875 308.890625 341.402344 C 306.558594 342.660156 304.03125 343.246094 301.492188 343.777344 C 300.554688 343.96875 299.59375 344.128906 298.605469 344.308594 C 298.78125 345.757812 299.34375 347.039062 299.78125 348.363281 C 301.863281 354.5625 304.496094 360.542969 307.355469 366.4375 C 310.21875 372.308594 313.066406 378.1875 316.125 383.953125 C 318.539062 388.511719 321.101562 392.972656 323.726562 397.394531 C 325.492188 400.375 327.261719 403.332031 329.210938 406.195312 C 332.265625 410.707031 335.238281 415.296875 338.539062 419.652344 C 339.449219 420.867188 340.234375 422.15625 341.109375 423.414062 C 348.925781 434.59375 357.613281 445.039062 367.496094 454.480469 C 375.996094 462.617188 384.964844 470.195312 394.574219 477.015625 C 395.417969 477.621094 396.25 478.210938 397.292969 478.386719 C 397.996094 478.5 398.484375 478.988281 399 479.390625 C 411.890625 489.5625 426.117188 497.441406 440.941406 504.351562 C 445.394531 506.429688 449.90625 508.359375 454.449219 510.269531 C 455.28125 510.621094 455.898438 510.636719 456.597656 510.035156 C 458.027344 508.789062 459.828125 508.152344 461.605469 507.246094 C 460.832031 505.839844 460.023438 504.515625 459.429688 503.054688 C 458.171875 499.988281 457.582031 496.8125 457.757812 493.515625 C 457.960938 489.550781 459.234375 485.9375 461.558594 482.710938 C 462.375 481.558594 463.378906 480.589844 464.585938 479.875 C 465.375 479.414062 465.589844 478.90625 465.414062 477.957031 C 464.132812 471.046875 465.023438 464.277344 467.492188 457.773438 C 469.324219 452.910156 472.398438 448.898438 476.890625 446.078125 C 477.726562 445.558594 478.613281 445.1875 479.539062 444.871094 C 481.300781 444.28125 482.839844 444.785156 484.246094 445.960938 C 486.820312 448.078125 489.214844 450.390625 491.546875 452.769531 C 496.324219 457.671875 500.773438 462.871094 504.953125 468.261719 C 507.960938 472.132812 510.816406 476.167969 513.222656 480.449219 C 517.203125 487.550781 520.214844 495.0625 522.527344 502.871094 C 525.273438 512.128906 527.339844 521.542969 528.507812 531.105469 C 529.296875 537.554688 529.1875 544.058594 528.898438 550.546875 C 528.859375 551.570312 529.078125 552.210938 529.902344 552.851562 C 533.84375 555.882812 537.539062 559.203125 541.269531 562.480469 C 541.570312 562.742188 541.773438 563.195312 542.363281 563.101562 C 542.28125 562.199219 542.074219 561.335938 542.164062 560.433594 C 542.347656 558.5625 543.296875 557.582031 545.1875 557.449219 C 546.429688 557.363281 547.589844 557.617188 548.65625 558.296875 C 551.289062 559.9375 553.789062 561.734375 556.257812 563.589844 C 563.347656 568.953125 569.558594 575.207031 575.269531 582 C 579.511719 587.046875 583.675781 592.144531 587.730469 597.339844 C 588.390625 598.195312 589.195312 598.671875 590.285156 598.882812 C 592.480469 599.332031 594.6875 599.734375 596.816406 600.488281 C 602.402344 602.464844 606.203125 606.324219 608.761719 611.546875 C 610.515625 615.121094 610.738281 619.003906 610.882812 622.898438 C 610.894531 623.019531 610.882812 623.136719 610.871094 623.253906 C 610.375 626.390625 612.003906 628.65625 613.808594 630.917969 C 615.132812 632.578125 616.289062 634.371094 617.429688 636.148438 C 620.21875 640.488281 623.066406 644.8125 625.667969 649.265625 C 627.015625 651.5625 628.527344 653.777344 629.710938 656.15625 C 631.109375 659.007812 633.492188 660.660156 636.230469 661.953125 C 640.351562 663.917969 644.691406 665.308594 649.046875 666.558594 C 657.011719 668.867188 663.949219 672.921875 670.050781 678.464844 C 670.140625 678.539062 670.238281 678.625 670.328125 678.699219 C 670.503906 678.867188 670.660156 679.113281 670.519531 679.332031 C 670.324219 679.632812 669.996094 679.5625 669.726562 679.410156 C 669.457031 679.257812 669.195312 679.125 668.945312 678.9375 C 665.921875 676.59375 662.328125 675.414062 658.867188 673.980469 C 654.90625 672.367188 650.65625 671.957031 646.484375 671.195312 C 646.320312 671.171875 646.136719 671.226562 645.828125 671.25 C 645.988281 672.511719 646.179688 673.753906 646.304688 674.992188 C 647.089844 682.480469 645.304688 689.4375 641.914062 696.058594 C 638.632812 702.480469 634.691406 708.414062 629.398438 713.355469 C 625.878906 716.636719 622.078125 719.558594 617.660156 721.511719 C 615.429688 722.492188 613.042969 722.960938 610.601562 723.101562 C 608.507812 723.214844 606.792969 722.605469 605.402344 721.050781 C 605.199219 720.835938 604.996094 720.617188 604.777344 720.414062 C 604.742188 720.390625 604.65625 720.425781 604.371094 720.457031 C 606.339844 722.875 608 725.359375 609.648438 727.851562 C 610.550781 729.222656 611.648438 730.425781 612.707031 731.667969 C 615.914062 735.371094 619.945312 737.871094 624.375 739.808594 C 624.925781 740.0625 625.484375 740.289062 626.03125 740.566406 C 626.222656 740.660156 626.46875 740.804688 626.34375 741.121094 C 626.25 741.375 626.019531 741.523438 625.789062 741.5 C 625.363281 741.449219 624.953125 741.34375 624.558594 741.207031 C 621.238281 740.050781 617.882812 738.980469 614.851562 737.160156 C 612.90625 735.984375 611.113281 734.515625 609.210938 733.269531 C 605.257812 730.695312 602.636719 726.859375 599.570312 723.433594 C 597.835938 721.476562 595.988281 719.652344 593.945312 718.019531 C 592.671875 717.019531 591.289062 716.652344 589.730469 716.722656 C 584.296875 716.964844 578.851562 717.152344 573.414062 717.050781 C 569.527344 716.972656 565.675781 716.4375 561.832031 715.921875 C 561.523438 715.878906 561.238281 715.804688 560.929688 715.765625 C 559.375 715.570312 557.757812 715.074219 556.238281 715.273438 C 554.773438 715.453125 553.765625 716.882812 552.433594 717.609375 C 549.285156 719.351562 546.136719 721.09375 542.464844 721.375 C 538.050781 721.722656 533.710938 721.242188 529.699219 719.25 C 527.25 718.03125 525.269531 716.097656 523.324219 714.183594 C 522.152344 713.035156 521.234375 711.671875 520.203125 710.40625 C 519.796875 709.910156 519.34375 709.679688 518.699219 709.554688 C 511.363281 708.183594 504.011719 706.824219 496.691406 705.378906 C 487.652344 703.585938 479.027344 700.617188 470.875 696.261719 C 468.265625 694.863281 465.664062 693.480469 463.703125 691.101562 C 461.75 688.742188 461.570312 686.234375 463.5625 683.808594 C 462.382812 683.15625 461.109375 682.824219 459.875 682.453125 C 455.683594 681.226562 451.546875 679.8125 447.472656 678.226562 C 446.722656 677.933594 446.242188 677.960938 445.535156 678.480469 C 440.683594 682.117188 435.625 685.4375 430.273438 688.335938 C 422.296875 692.640625 413.863281 695.832031 405.277344 698.6875 C 399.066406 700.753906 392.742188 702.4375 386.269531 703.390625 C 378.160156 704.554688 370.007812 704.921875 361.832031 703.894531 C 358.058594 703.417969 354.246094 703.25 350.46875 702.667969 C 344.371094 701.605469 338.300781 700.484375 332.371094 698.640625 Z M 332.371094 698.640625 " fill-opacity="1" fill-rule="nonzero"/></g></g></g></svg>